<svg width="512" height="512" viewBox="0 0 512 512" fill="none" xmlns="http://www.w3.org/2000/svg">
  <defs>
    <linearGradient id="bg" x1="96" y1="64" x2="424" y2="448" gradientUnits="userSpaceOnUse">
      <stop stop-color="#FFF3E9"/>
      <stop offset="1" stop-color="#FFE2D1"/>
    </linearGradient>
    <linearGradient id="shell" x1="150" y1="136" x2="362" y2="390" gradientUnits="userSpaceOnUse">
      <stop stop-color="#FF8552"/>
      <stop offset="1" stop-color="#D9481C"/>
    </linearGradient>
    <linearGradient id="claw" x1="108" y1="94" x2="414" y2="278" gradientUnits="userSpaceOnUse">
      <stop stop-color="#FFB36B"/>
      <stop offset="1" stop-color="#F05A28"/>
    </linearGradient>
  </defs>

  <rect x="56" y="56" width="400" height="400" rx="112" fill="url(#bg)"/>
  <rect x="56" y="56" width="400" height="400" rx="112" stroke="#F7B08A" stroke-width="8"/>

  <path d="M160 198C137 196 118 179 112 156C106 133 114 108 134 92C148 81 167 74 186 74L170 118L212 126L180 164L222 178C205 192 183 200 160 198Z" fill="url(#claw)"/>
  <path d="M352 198C375 196 394 179 400 156C406 133 398 108 378 92C364 81 345 74 326 74L342 118L300 126L332 164L290 178C307 192 329 200 352 198Z" fill="url(#claw)"/>

  <path d="M256 150C196 150 146 197 146 255C146 309 188 353 242 360V408H270V360C324 353 366 309 366 255C366 197 316 150 256 150Z" fill="url(#shell)"/>
  <path d="M208 236C220 236 230 226 230 214C230 202 220 192 208 192C196 192 186 202 186 214C186 226 196 236 208 236Z" fill="#472018"/>
  <path d="M304 236C316 236 326 226 326 214C326 202 316 192 304 192C292 192 282 202 282 214C282 226 292 236 304 236Z" fill="#472018"/>

  <path d="M217 284C235 299 277 299 295 284" stroke="#FFF4EE" stroke-width="16" stroke-linecap="round"/>

  <path d="M192 382L168 430" stroke="#A43A18" stroke-width="16" stroke-linecap="round"/>
  <path d="M228 392L212 446" stroke="#A43A18" stroke-width="16" stroke-linecap="round"/>
  <path d="M320 382L344 430" stroke="#A43A18" stroke-width="16" stroke-linecap="round"/>
  <path d="M284 392L300 446" stroke="#A43A18" stroke-width="16" stroke-linecap="round"/>

  <path d="M154 240L110 272" stroke="#C44B21" stroke-width="14" stroke-linecap="round"/>
  <path d="M358 240L402 272" stroke="#C44B21" stroke-width="14" stroke-linecap="round"/>
</svg>
